<?xml version="1.0" encoding="UTF-8"?>
<svg xmlns="http://www.w3.org/2000/svg" width="100" height="100" viewBox="0 0 100 100">
  <defs>
    <style>
      .cls-1 {
        fill: #43392f;
      }

      .cls-2 {
        fill: #fcfbf6;
      }
    </style>
  </defs>
  <g id="_レイヤー_2" data-name="レイヤー_2">
    <circle class="cls-1" cx="50" cy="50" r="47.5"/>
  </g>
  <g id="_レイヤー_1" data-name="レイヤー_1">
    <path class="cls-2" d="M80.77,59.52c-4.69,3.87-9.37,5.81-13.86,5.81-1.63,0-3.36-.41-4.99-1.22-2.14-.92-3.16-2.14-3.16-3.57,0-2.95,1.33-5.71,4.08-8.35.92.82,2.24,1.22,3.87,1.22,1.53,0,2.95-.41,4.38-1.43,1.32-1.02,2.04-2.24,2.04-3.77,0-1.43-.92-2.55-2.65-3.36-1.43-.61-2.96-.92-4.58-.92-7.95,0-16.91,2.34-27.1,6.83,5.91,12.02,13.96,20.38,24.04,25.16-.81,2.24-2.65,4.08-5.71,5.6-2.85,1.53-5.5,2.24-7.95,2.24-3.26,0-7.23-3.97-12.12-12.02-3.36-5.5-6.11-11-8.35-16.5-1.02.31-3.46,1.43-7.44,3.36-4.08,2.04-6.21,2.96-6.21,2.96-1.12,0-2.24-.82-3.26-2.45-1.12-1.63-1.63-3.06-1.63-4.28,0-2.45,1.94-4.48,5.91-6.21,3.06-1.02,6.11-2.14,9.17-3.16-2.85-8.05-4.18-13.86-4.18-17.42,0-2.34.81-3.57,2.55-3.57,1.63,0,4.18.1,7.54.2,3.26.1,5.81.1,7.54.1,4.69,0,8.05-.1,9.88-.41,4.28-.71,6.83-2.34,7.64-4.89,2.04.41,3.77,1.12,5.3,2.14,1.73,1.32,2.65,2.95,2.65,4.79,0,3.16-6.01,4.69-17.93,4.69-1.22,0-2.95-.1-5.2-.31-2.34-.2-4.08-.31-5.2-.31-2.45,0-3.57,1.22-3.57,3.57s1.02,5.2,3.26,8.46c14.16-3.57,25.67-5.4,34.54-5.4,11.82,0,17.73,3.26,17.73,9.78,0,4.48-2.34,8.76-7.03,12.63Z"/>
  </g>
</svg>