<?xml version="1.0" encoding="UTF-8"?>
<svg id="_レイヤー_1" data-name="レイヤー_1" xmlns="http://www.w3.org/2000/svg" width="197.99" height="51.12" viewBox="0 0 197.99 51.12">
  <defs>
    <style>
      .cls-1 {
        stroke-linecap: round;
        stroke-linejoin: round;
        stroke-width: .28px;
      }

      .cls-1, .cls-2 {
        fill: #fff;
      }

      .cls-1, .cls-3 {
        stroke: #fff;
      }

      .cls-3 {
        fill: none;
        stroke-miterlimit: 10;
        stroke-width: 2.25px;
      }
    </style>
  </defs>
  <g>
    <path class="cls-1" d="M45.74,7.12s-2.16-.63-3.64,0c-1.48.63-2.05,3.37-4.17,4.54-1.97,1.09-4.78,1.32-6.41-.11-1.5-1.32-1.25-3.03-.67-4.2s2.28-1.92,3.54-2.14,2.31-.33,3.79-.25c1.63.1,2.07.23,4.19.76,2.11.53,3.37,1.39,3.37,1.39h0Z"/>
    <path class="cls-1" d="M47.54,8.55c1.04-.52-3.22-.16-5.12,1.16s-3.17,2.64-3.06,4.38.79,2.01,1.22,2.11,1.26.16,2.16-.42,1.05-1,1.43-2.06-.16-1.43.37-2.64,2.48-2.27,3.01-2.54h0Z"/>
    <path class="cls-1" d="M43.53,19.58s-.05-.35-.03-.9c.03-.86.24-2.41,1.16-3.57,1.27-1.61,1.99-2.13,3.84-2.34s4.8,1.64,5.01,3.41-.84,2.67-2.27,2.99-3.06-.83-3.54-1.95c-.28-.67-1.08-1.57-1.44-1.55-.9.05-1.17.2-1.62.97-.57.98-1.11,2.96-1.11,2.96h0Z"/>
    <path class="cls-1" d="M23.8,13.11s-1.29.1-2.75-.82c-.99-.61-1.44-1.37-1.05-2.4.47-1.26,1.22-1.12,1.88-1.77.97-.95,1.08-2.31.93-3.23-.16-.97-.63-1.95-1.86-2.2-.93-.18-2.53-.03-3.47,1.18s-1.28,2.05-1.49,3.46c-.12.79,0,2.55.85,3.34s1.24,1.14,2.48,1.66c1.16.5,4.5.78,4.5.78h0Z"/>
    <path class="cls-1" d="M12.48,5.82s-.76,1.96-.29,3.12.8,1.16,2.07,1.79,1.85.71,2.69,1.58,1.25,1.28,1.35,2.5c.12,1.48-.54,2.08-1.72,1.94-1.16-.14-2.58-1.05-3.9-2.58s-1.85-3.27-1.64-4.64,1.44-3.7,1.44-3.7h0Z"/>
    <path class="cls-1" d="M10.02,7.33s-3.42,5.6-3.95,8.1c-.68,3.22-.69,5.33.37,6.97s5.07,2.79,6.49,0,.11-6.23-1.43-7.97c-1.53-1.74-1.59-5.34-1.48-7.1Z"/>
    <path class="cls-1" d="M12.64,30.4s.9,2.58,0,4.54-2.26,4.03-6.6,3.27c-2.11-.37-3.27-2.58-2.79-3.86.48-1.27,2.11-2.75,4.16-2.01s1.43,2.69,3.01,2.48,1.95-3.06,2.22-4.43Z"/>
    <path class="cls-1" d="M4.8,39.63c-.05-.07,3.24.92,4.32.63,1.94-.52,1.81-2.2,3.93-2.57,2.5-.44,4.06,1.14,3.45,3.39-.82,3.03-2.65,2.63-5.24,2.16s-5.56-2.42-6.45-3.61h0Z"/>
    <path class="cls-1" d="M15.76,46.92c-.24-1.07-.05-2.97.87-3.56s2.26.28,1.71,1.46-1.24.63-1.71,1.43-.63,1.11-.63,1.46-.24-.79-.24-.79Z"/>
    <path class="cls-1" d="M17.07,48.15c-.81-.12,1.19-.44,1.86-1.39s-.63-4.83.35-6.58c.99-1.75,3.28-1.9,4.04-.28s.16,4.24-.48,5.03-.56,1.18-2.06,2.14c-1.32.84-2.71,1.22-3.72,1.07h0Z"/>
    <path class="cls-1" d="M19.54,48.93c1.26-.76,2.94-1.31,3.84-2.97,1.31-2.43.95-1.49,1.63-3.9.45-1.59.99-2.69,2.72-3.45,1.77-.79,4.22-.39,5.2,1.9s.44,3.64-.44,4.96-1.38,1.5-3.79,2.31c-2.73.91-9.09,1.5-9.17,1.15h0Z"/>
    <path class="cls-1" d="M43.63,45.25c.16-.95.24-1.67-.35-2.06s-.91-.12-1.43-.56-1.07-1.5.32-1.78,2.06.48,2.37,1.11.12,1.43-.2,2.26-.71,1.03-.71,1.03h0Z"/>
    <path class="cls-1" d="M45.57,43.9c-.65,1.29.44-2.06-.16-3.11s-2.1-.78-4.12-1.68c-2.01-.91-3.01-2.14-2.25-3.76s3.6-.67,4.75.2,2.5,1.94,2.65,3.44-.59,4.35-.87,4.91h0Z"/>
    <path class="cls-1" d="M46.12,35.71c.86,1.55,1.39,2.41,1.39,4.24s-.69,3.45-.69,3.45c0,0,1.8-2.22,2.83-4.91s1.94-8.23.95-10.06-5.39-4.08-7.13.35c-1.74,4.43,2.21,6.14,2.65,6.93Z"/>
    <path class="cls-3" d="M50.48,40.89c-5.81,5.6-6.16,6.05-13.34,7.73-7.18,1.69-11.59,1.65-17.5.8-5.91-.84-8.65-2.98-12.34-6.04-1.84-1.53-4.59-5.43-5.33-10.22-1.11-7.2-.95-8.92-.53-12.51s3.16-7.28,5.45-10.82c.98-1.52,9.66-8.71,20.11-8.71,6.97,0,13.32,1.07,17.65,4.28,5.36,3.96,6.34,5.71,8.35,9.41,2.01,3.7,2.91,13.73,1.4,19-.66,2.29-1.63,4.86-3.93,7.07h0Z"/>
  </g>
  <g>
    <path class="cls-2" d="M82.61,22.48c.24.65.37,1.38.39,2.2.02.83-.03,1.64-.14,2.43-.11.79-.24,1.46-.41,2.01-.24.79-.53,1.35-.87,1.68-.34.33-.73.54-1.17.63-.42.1-.73.08-.94-.04-.2-.12-.39-.12-.55-.01l-.63.44c-.11.1-.31.16-.61.19s-.59.03-.88-.01-.52-.12-.69-.23c-.46-.37-.84-.82-1.13-1.35-.29-.53-.52-1.07-.69-1.63s-.31-1.04-.41-1.46c-.1-.42-.21-.87-.36-1.35-.15-.48-.33-.9-.55-1.26s-.49-.6-.8-.69c-.66-.2-1.18-.15-1.54.16-.37.31-.62.65-.74,1.02-.13.37-.22.77-.27,1.21s-.03.81.04,1.1c.09.33.29.74.59,1.22s.66.99,1.07,1.49.8.95,1.17,1.34c.57.58,1.12,1.07,1.65,1.46s1,.54,1.41.47c.31.92.41,1.68.31,2.28s-.35,1.07-.7,1.41-.75.54-1.2.63c-.29.05-.66,0-1.1-.14-.44-.15-.84-.32-1.21-.52-.48-.28-.99-.73-1.53-1.35-.54-.63-1.07-1.3-1.58-2.03s-.96-1.4-1.33-2.03c-.37-.63-.63-1.08-.77-1.38-.28-.57-.69-.99-1.24-1.25s-1.18-.51-1.88-.73c-.2-.07-.5-.26-.9-.55s-.76-.7-1.1-1.22-.54-1.14-.62-1.86c.71,0,1.33-.17,1.82-.51s.9-.71,1.2-1.12c.31-.4.52-.69.65-.86.11-.15.2-.4.29-.75s.14-.77.16-1.22,0-.9-.05-1.34c-.06-.43-.18-.78-.35-1.03,1.25-.15,2.31-.09,3.17.16.86.26,1.54.57,2.04.94.2.13.55.18,1.05.16s.92-.21,1.26-.58c.37-.37.71-.87,1.02-1.52.31-.65.44-1.48.39-2.51.97-.07,1.8.03,2.48.32s1.21.67,1.6,1.14.6.99.63,1.54c.02.22.11.48.28.79s.42.54.77.7c.77.35,1.48.8,2.11,1.34.63.54,1.09,1.22,1.39,2.05ZM78.91,28.24c.22-.02.36-.18.43-.47.06-.29.09-.66.07-1.1-.02-.44-.07-.89-.14-1.35-.1-.61-.23-1.14-.43-1.61s-.41-.69-.67-.65c-.33.05-.57.23-.71.54-.15.31-.22.67-.2,1.09,0,.42.07.86.18,1.29.16.63.37,1.16.63,1.61s.54.67.86.65h0Z"/>
    <path class="cls-2" d="M99.09,15.73c.31.26.68.45,1.1.56.42.12.84.19,1.24.2.37.02.67-.01.92-.1.24-.08.46-.19.62-.32.71.35,1.2.82,1.43,1.39.24.58.18,1.24-.19,2-.2.4-.55.73-1.05.99-.5.26-.94.44-1.33.55-.1.02-.31.06-.65.12s-.72.14-1.14.2c-.42.07-.83.15-1.22.22-.39.07-.69.14-.9.19-.42.11-.78.31-1.06.58-.29.28-.45.59-.48.94,0,.1.01.22.04.39s.07.31.12.41c.09.18.32.37.69.55s.79.37,1.26.56c.48.19.96.39,1.45.61.49.21.9.45,1.22.7.7.5,1.14,1.2,1.32,2.09.09.48.12,1.03.1,1.65-.03.63-.14,1.33-.35,2.09-.05.22-.2.62-.43,1.18-.23.57-.52,1.18-.86,1.84s-.71,1.25-1.12,1.8-.82.92-1.24,1.13c-.13.07-.31.14-.52.19s-.42.07-.61.05c-.28-.03-.57-.14-.9-.29-.32-.16-.58-.35-.78-.59-.29-.35-.49-.73-.58-1.13-.1-.4-.1-.7-.03-.88.35-.02.65-.19.9-.52s.45-.69.61-1.09c.16-.39.27-.69.32-.87.09-.28.18-.61.28-1.01.09-.39.06-.77-.08-1.12-.13-.37-.36-.65-.69-.83-.33-.18-.6-.31-.8-.39-.13-.07-.38-.18-.75-.31-.37-.13-.75-.26-1.12-.39s-.62-.21-.74-.25c-.39-.15-.77-.44-1.14-.88s-.58-.89-.62-1.35c-.02-.29-.02-.67,0-1.14s.05-.93.1-1.39c.05-.46.09-.82.12-1.07.02-.13,0-.37-.05-.73s-.32-.67-.8-.92c-.28-.15-.61-.36-.98-.65-.37-.29-.67-.67-.9-1.17-.13-.31-.21-.68-.24-1.1-.03-.42,0-.89.14-1.41.02-.09.05-.2.08-.33.03-.13.09-.27.16-.41.29.1.69.18,1.2.27s1.01.12,1.53.12.92-.05,1.24-.14c.46-.15.81-.39,1.05-.73.24-.34.41-.7.51-1.09s.17-.71.2-.97c.86.02,1.66.21,2.39.58.73.37,1.39.82,2,1.35v.03Z"/>
    <path class="cls-2" d="M130.12,24.5c.4.15.77.37,1.1.69.33.31.56.73.7,1.24.14.52.1,1.15-.12,1.9-.07.29-.27.59-.59.9s-.77.58-1.34.84c-.2.07-.37.12-.51.14-.14.02-.29.07-.46.16-.16.07-.24.23-.24.47-.02.1-.02.2-.01.33,0,.13.02.27.04.41.05.33-.03.71-.26,1.16s-.57.87-1.03,1.29c-.46.42-1.03.77-1.71,1.05-.33.13-.88.15-1.64.05-.76-.09-1.56-.44-2.41-1.05-.2-.15-.44-.23-.7-.24-.27-.02-.49.03-.67.14-.11.05-.38.25-.82.59-.43.34-.93.7-1.5,1.09-.57.39-1.11.69-1.63.91-.44.18-.93.28-1.48.29-.54,0-1.06-.01-1.56-.07-.52-.07-1.06-.28-1.64-.62s-1.04-.71-1.39-1.12c-.35-.42-.69-.99-1.02-1.69s-.45-1.56-.36-2.58c.09-.92.36-1.83.82-2.73s1.01-1.58,1.69-2.04c.81-.53,1.56-.89,2.24-1.07.69-.18,1.38-.32,2.08-.41.28-.03.59-.1.95-.18s.57-.31.65-.67c.09-.42-.08-.75-.51-.98s-.9-.38-1.39-.46c-.7-.11-1.31-.26-1.83-.46-.52-.19-.95-.46-1.28-.82-.63-.58-.91-1.48-.86-2.67.13.03.41.07.86.1.44.03.92.04,1.45.04s.96-.02,1.31-.05c.53-.05.96-.2,1.28-.46.32-.24.51-.54.56-.9.07-.37.06-.63-.03-.8-.1-.16-.18-.31-.28-.44.73-.13,1.37-.14,1.9-.04.53.1.99.24,1.35.44.37.19.65.36.86.51.44.31.73.59.86.83.13.24.29.44.47.61.37.33.77.5,1.21.51s.8-.01,1.07-.07c.26-.03.41-.1.48-.18s.12-.16.18-.23c.4.29.71.7.91,1.21.2.52.28,1.02.23,1.52s-.24.87-.59,1.13c-.18.13-.49.29-.92.48s-.85.37-1.25.54c-.4.15-.66.34-.77.58s-.19.46-.24.66c-.05.18-.1.36-.11.54-.02.18,0,.37.03.59.05.4.18.72.36.95s.37.56.55,1.01c.13.28.22.6.28.97.05.37.14.71.23,1.05.1.33.26.58.48.74.37.24.78.32,1.24.25.46-.07.79-.18.99-.31.2-.15.33-.29.37-.43s.06-.26.04-.37c-.05-.31-.15-.53-.28-.65-.13-.12-.22-.3-.28-.54-.13-.58-.12-1.18.03-1.79.15-.61.48-1.07.99-1.38.15-.09.37-.2.66-.33.29-.13.64-.22,1.03-.26.39-.05.78.01,1.17.18h0ZM116.12,31.49c1.21-.77,1.7-1.55,1.46-2.34-.1-.28-.28-.4-.55-.39-.28.02-.58.11-.92.26-.34.16-.67.32-.98.48-.29.16-.59.35-.9.54-.31.19-.5.39-.59.59-.2.4-.19.78.03,1.13.13.18.42.28.88.29.46,0,.99-.18,1.57-.56h0Z"/>
    <path class="cls-2" d="M143.9,17.72c.13.65.11,1.29-.07,1.94-.18.65-.4,1.3-.67,1.94-.28.65-.52,1.26-.71,1.85-.2.57-.45,1.21-.74,1.92s-.56,1.37-.78,2c-.23.63-.35,1.11-.37,1.46-.02.37.12.69.41.95.29.27.65.33,1.07.2.99-.31,1.79-.54,2.4-.69.61-.15,1.09-.23,1.48-.24.37-.02.72,0,1.03.08.33.07.63.28.9.61s.54.65.83.94.59.44.92.44c.26-.02.55-.13.88-.33.33-.2.66-.46.98-.75.32-.31.59-.62.82-.94s.34-.61.36-.87c.22.05.55.19.99.4.44.21.86.49,1.25.83s.62.73.67,1.17c.07.42.08.82.03,1.18s-.2.75-.46,1.14c-.24.39-.65.85-1.2,1.37-.28.28-.69.56-1.25.84-.56.29-1.23.5-2.01.66s-1.65.19-2.6.1c-.52-.05-.91-.2-1.18-.43s-.49-.47-.65-.71c-.16-.25-.32-.44-.48-.56-.24-.2-.65-.26-1.24-.16-.59.1-1.48.5-2.67,1.24-.11.05-.37.18-.78.36-.41.18-.85.36-1.31.52-.46.16-.83.27-1.1.31-.29.03-.66,0-1.09-.1-.43-.1-.84-.33-1.21-.7-.37-.37-.64-.92-.79-1.65-.07-.44-.09-.99-.05-1.65s.11-1.35.22-2.08.23-1.43.36-2.12.25-1.29.37-1.8c.12-.52.2-.87.23-1.07.05-.22.15-.58.29-1.09.14-.5.3-1.07.48-1.71.18-.63.36-1.26.54-1.88.18-.61.33-1.14.46-1.57.13-.43.2-.69.22-.79.11-.39.2-.81.26-1.26.06-.46.11-.89.14-1.29s.03-.69.01-.86c.22.05.58.18,1.09.37.5.19,1.03.44,1.58.71.55.29,1.04.58,1.46.91.42.32.66.62.71.9l-.03-.03Z"/>
    <path class="cls-2" d="M170.88,25.85c-.05.95-.18,1.76-.4,2.42-.22.66-.44,1.22-.65,1.68-.2.41-.44.69-.73.84-.29.14-.58.18-.87.11-.27-.07-.52-.23-.75-.48s-.41-.54-.54-.89-.18-.69-.16-1.03c.25.1.43.04.52-.16.16-.42.27-.9.35-1.43.07-.53.1-1.05.07-1.56-.01-.18-.04-.38-.08-.61s-.13-.36-.27-.41c-.06-.03-.13,0-.21.13s-.16.27-.24.44c-.08.18-.15.35-.21.52-.06.18-.11.3-.14.37s-.12.25-.22.54-.24.61-.4.97-.29.7-.43,1.01c-.14.31-.24.54-.31.69-.14.25-.31.53-.52.82s-.48.58-.8.84c-.31.27-.68.48-1.09.65-.41.16-.88.22-1.41.19-.23-.01-.54-.07-.92-.16-.39-.1-.76-.26-1.14-.49-.37-.23-.65-.55-.86-.96-.17-.34-.29-.79-.35-1.35s-.05-1.16.05-1.8c.09-.63.29-1.24.59-1.8.25-.47.57-.95.95-1.44.38-.49.84-.95,1.37-1.36s1.15-.75,1.86-1.01,1.52-.39,2.44-.41c.92-.01,1.7.1,2.34.33.64.24,1.17.55,1.6.95.42.4.75.83.98,1.3s.39.92.48,1.37c.09.45.12.84.1,1.18h0ZM163.62,26.43c.31-.63.51-1.2.58-1.69.07-.5,0-.82-.2-.93-.11-.06-.25-.05-.44.03-.18.08-.37.19-.58.35-.2.15-.39.31-.57.49-.18.18-.31.33-.41.46-.31.45-.54.84-.68,1.17-.14.33-.22.64-.24.92-.05.45.03.76.24.93.21.18.46.22.73.14.19-.06.39-.2.59-.41.2-.22.39-.46.56-.73s.31-.5.41-.71h0Z"/>
    <path class="cls-2" d="M197.74,34.42c.15.24.23.48.25.71.02.44-.15.83-.5,1.17s-.76.56-1.24.67c-.29.07-.84.14-1.65.19s-1.79.1-2.94.14-2.38.07-3.69.1-2.63.04-3.96.04-2.56,0-3.71-.03c-1.15-.02-2.13-.05-2.94-.1s-1.36-.1-1.65-.15c-.53-.13-1.01-.29-1.43-.47s-.75-.5-1.01-.95c-.24-.45-.4-1.14-.46-2.05h9.53c.22,0,.46-.05.7-.15s.37-.3.37-.59c.02-.2-.06-.35-.25-.43-.18-.08-.46-.15-.83-.2-.95-.03-1.86-.05-2.71-.03-.86.02-1.46,0-1.81-.08-.53-.13-1.01-.27-1.42-.43s-.74-.45-.99-.88c-.24-.43-.4-1.11-.46-2.03h7.22c.42-.02.73-.08.92-.19.19-.11.29-.23.29-.36-.02-.2-.15-.35-.39-.43-.24-.08-.44-.14-.61-.15-1.01-.07-1.94-.18-2.81-.32-.86-.14-1.58-.3-2.15-.48-.68-.26-1.31-.73-1.89-1.42-.58-.69-.94-1.59-1.09-2.71-.05-.37-.1-.86-.12-1.48-.03-.61-.05-1.28-.05-2,0-.71,0-1.42.01-2.12.02-.7.04-1.33.07-1.89.03-.56.07-.99.12-1.28h21.88c.05.26.1.67.14,1.22.03.56.06,1.2.08,1.92.02.71.03,1.43.04,2.16s0,1.39-.01,2.01c-.02.62-.03,1.09-.05,1.45-.03,1.07-.35,1.99-.95,2.78s-1.35,1.31-2.27,1.57c-.52.13-1.17.24-1.96.36s-1.65.18-2.56.22c-.15.02-.33.06-.56.14s-.35.21-.35.41.07.33.2.39c.14.05.46.12.95.19.28.03.67.05,1.2.05s1.09,0,1.72-.01,1.22-.02,1.79-.03c.57,0,1.22-.03,1.96-.07.28.24.48.48.62.73.14.25.22.48.23.67.03.44-.13.82-.5,1.12-.37.31-.8.52-1.3.65-.22.05-.58.1-1.09.14-.5.03-1.06.06-1.67.08s-1.19.04-1.75.07c-.56.03-1.01.05-1.34.07-.26.02-.5.08-.71.18-.22.1-.33.24-.33.43,0,.07.05.2.16.39s.4.31.88.36c.26.02.7.03,1.33.04.63,0,1.32.01,2.08.01s1.5,0,2.2-.01c.71,0,1.52-.02,2.44-.04.33.24.57.48.71.71l.03.03ZM181.53,17.8c-.4,0-.82.05-1.25.15s-.66.26-.67.48c0,.29.18.49.54.59.36.1.77.15,1.22.15.29,0,.6-.01.92-.04.32-.03.6-.09.83-.18.23-.09.35-.24.35-.47,0-.29-.22-.49-.65-.58-.43-.09-.86-.13-1.28-.11h-.01ZM179.6,22.84c0,.29.18.49.54.59.36.1.77.15,1.22.15.29,0,.6-.01.92-.04.32-.03.6-.1.83-.19.23-.1.35-.25.35-.46,0-.31-.22-.51-.65-.59s-.86-.12-1.28-.1c-.4,0-.82.05-1.25.15s-.66.26-.67.48h-.01ZM189.77,17.8c-.4,0-.82.05-1.25.15-.44.1-.65.26-.65.48-.02.29.15.49.51.59.36.1.77.15,1.22.15.29,0,.6-.01.92-.04s.6-.09.83-.18c.23-.09.35-.24.35-.47,0-.29-.22-.49-.65-.58-.44-.09-.86-.13-1.28-.11h-.01ZM189.77,22.21c-.4,0-.82.05-1.25.15-.44.1-.65.26-.65.48-.02.29.15.49.51.59.36.1.77.15,1.22.15.29,0,.6-.01.92-.04s.6-.1.83-.19.35-.25.35-.46c0-.31-.22-.51-.65-.59-.44-.08-.86-.12-1.28-.1h-.01Z"/>
  </g>
</svg>